<svg xmlns="http://www.w3.org/2000/svg" viewBox="0 0 881.97 318.28"><defs><style>.cls-1{fill:#290b53;}.cls-2{fill:none;}</style></defs><g id="Layer_2" data-name="Layer 2"><g id="Layer_1-2" data-name="Layer 1"><path class="cls-1" d="M247.17,111.71a1.52,1.52,0,0,1,.24-1.44c6.06-7.65,11.56-16.45,11.56-23.2,0-15-8.56-27.19-27.19-27.19-9.23,0-16,3-20.45,7.83a1.56,1.56,0,0,1-1.63.44A138.83,138.83,0,0,0,187.94,63a1.52,1.52,0,0,0-1.67,1.9c1.54,5.77,10.78,42.43,18.22,70.34,4.5,16.89-7.16,33.48-24.64,33.43l-10.82,0c-17.66,0-28.38-16.65-24.31-33.25C151.59,107.37,161,71,162.53,65a1.51,1.51,0,0,0-1.65-1.89,118.92,118.92,0,0,0-25.21,5.77,1.55,1.55,0,0,1-1.71-.47c-4.45-5.23-11.39-8.5-21-8.5-18.63,0-27.19,12.17-27.19,27.19,0,7.87,7.48,18.54,14.6,26.9a1.55,1.55,0,0,1,.28,1.48L88.53,150.68a.36.36,0,0,0,0,.11c-.32,1.23-5,22,30.56,55.06,10.64,9.91,47.71,45.62,54.37,52a1.5,1.5,0,0,0,2.07,0c6.85-6.37,45.3-42.06,56-52,38.42-35.83,29.27-55.17,29.27-55.17Z"/><path class="cls-1" d="M181.72,145.36H167.24A4.34,4.34,0,0,1,162.9,141l-1.8-17.83a4.34,4.34,0,0,1,4.35-4.34h18a4.34,4.34,0,0,1,4.35,4.34L186.07,141A4.34,4.34,0,0,1,181.72,145.36Z"/><polygon class="cls-1" points="427.4 97.3 395.49 97.3 358.11 146.49 350.53 146.49 350.53 97.3 321.79 97.3 321.79 220.72 350.53 220.72 350.53 168.35 358.46 168.35 395.49 220.72 429.34 220.72 381.56 155.3 427.4 97.3"/><path class="cls-1" d="M499.56,199.19l-23,0c-4.76,0-6.35-.53-7.93-2.12s-2.12-3.88-2.12-7.93V123.74H439.39v68.41c0,14.11,1.76,19.22,5.64,23.28,3.7,3.7,9,5.46,17.46,5.46H474.3c8.81,0,12.87-1.94,25.21-13v12.88h27.15v-97h-27.1Z"/><path class="cls-1" d="M684.64,129c-3.7-3.7-9-5.46-17.28-5.46h-8.28c-9.17,0-13.23,1.94-26.45,14.1a16.27,16.27,0,0,0-4.58-8.64c-3.71-3.7-9-5.46-17.28-5.46h-8.29c-9,0-12.87,1.76-25.39,13V123.74h-27v97h26.93V145.09h19.44c4.76,0,6.52.7,8.11,2.29,1.41,1.41,2.11,3.7,2.11,7.93v65.42h27V145.09h19.05c4.76,0,6.52.7,8.11,2.29,1.41,1.41,2.12,3.7,2.12,7.93v65.42h27.33V152.31C690.29,138,688.7,132.91,684.64,129Z"/><path class="cls-1" d="M788.14,129.23c-3.52-3.7-9.34-5.47-19.21-5.47H739c-8.82,0-12.9,1.3-25.07,12.38V145l44.26.08c4.06,0,5.82.35,7.06,1.41,1.23,1.41,1.78,3.16,1.78,12.68v5.13a125.21,125.21,0,0,0-26.53-2.82c-17.46,0-23.1,2.11-27.51,6.52-3.83,3.84-5.63,10.29-5.94,20.38v3.69c0,14.1,1.76,19.21,5.64,23.27,3.71,3.7,9,5.47,17.46,5.47h11.81c8.78,0,12.84-1.93,25.07-12.92h0v12.86h27V155.15C794,138.75,792.55,133.64,788.14,129.23Zm-43.92,69.93c-4.76,0-6.34-.53-7.93-2.12s-2.12-3.87-2.12-7.93V177.89l32.82-.15v10.68h0v10.72Z"/><rect class="cls-2" width="881.97" height="318.28"/></g></g></svg>